<svg id="Ebene_1" xmlns="http://www.w3.org/2000/svg" width="497.174" height="398.909" viewBox="0 0 497.1743 398.9091"><style>.st0{fill:#1e93d1}.st1{fill:#1f3d8d}.st2{fill:#2358a5}</style><path class="st0" d="M324.782 102.463l-58.963-39.034c-5.324-3.568-11.912-5.46-18.328-5.46-6.41 0-12.803 1.892-18.131 5.46l-57.94 39.034c-8.939 5.994-14.008 15.997-14.008 26.762v74.563c0 17.767 13.727 29.618 31.496 29.618h116.415c17.765 0 35.253-11.851 35.253-29.618v-74.563c0-10.765-6.854-20.768-15.794-26.762"/><path class="st1" d="M324.782 102.463l-58.963-39.034c-5.324-3.568-11.912-5.46-18.328-5.46-3.03 0-6.181.438-9.055 1.26l58.914 102.225-122.809 69.727c4.358 2.128 9.203 2.225 14.367 2.225h116.415c17.765 0 35.253-11.851 35.253-29.619v-74.562c0-10.765-6.854-20.768-15.794-26.762"/><path class="st2" d="M298.359 161.494l42.217-3.823v-28.446c0-10.763-6.85-20.766-15.79-26.76L265.819 63.43c-5.328-3.574-11.912-5.46-18.325-5.46-3.033 0-6.18.436-9.061 1.258l59.492 102.225.434.04z"/><path class="st0" d="M247.262 23.672c5.203 0 10.41 1.51 14.923 4.538l91.152 61.127a26.785 26.785 0 0 1 11.87 22.252v116.767c0 14.797-11.996 26.792-26.793 26.792H156.106c-14.796 0-26.792-11.995-26.792-26.792V111.589a26.794 26.794 0 0 1 11.87-22.252L232.34 28.21a26.76 26.76 0 0 1 14.922-4.538m0-23.672a50.307 50.307 0 0 0-28.105 8.55L128 69.676a50.383 50.383 0 0 0-22.355 41.913v116.767c0 27.824 22.636 50.462 50.46 50.462h182.308c27.828 0 50.464-22.638 50.464-50.462V111.589a50.386 50.386 0 0 0-22.358-41.913L275.368 8.55A50.307 50.307 0 0 0 247.262 0M60.528 398.209H44.315v-34.755H16.21v34.755H0V315.17h16.209v33.939h28.106V315.17h16.213v83.039zm61.226-30.439c0 5.83-.465 10.458-1.396 13.877-1.012 3.812-2.84 7.076-5.483 9.797-4.743 4.977-11.043 7.465-18.896 7.465-7.772 0-14.034-2.488-18.777-7.465-2.644-2.721-4.472-5.985-5.479-9.797-.935-3.419-1.4-8.047-1.4-13.878 0-10.884 2.331-18.776 6.997-23.676 4.667-4.897 10.887-7.347 18.66-7.347 7.852 0 14.113 2.45 18.776 7.347 4.667 4.9 6.998 12.792 6.998 23.676zm-15.278 0c0-7.464-1.152-12.363-3.46-14.697-1.767-1.787-4.114-2.682-7.037-2.682-2.842 0-5.15.895-6.918 2.682-2.308 2.334-3.46 7.233-3.46 14.696 0 7.542 1.152 12.48 3.46 14.813 1.767 1.788 4.076 2.682 6.918 2.682 2.923 0 5.27-.894 7.036-2.682 2.309-2.334 3.461-7.271 3.461-14.813zm109.75 30.439H200.95v-36.737c0-3.808-1.08-6.687-3.229-8.632-1.77-1.632-3.999-2.449-6.688-2.449-2.686 0-4.919.778-6.686 2.333-2.228 1.944-3.342 4.743-3.342 8.397v37.088h-15.278v-36.737c0-3.808-1.091-6.687-3.266-8.632-1.79-1.632-4.045-2.449-6.766-2.449-2.796 0-5.093.817-6.879 2.45-2.179 1.944-3.267 4.823-3.267 8.63v36.738H130.39v-60.763h14.809v5.598c4.044-4.197 9.096-6.298 15.163-6.298 6.998 0 12.363 2.566 16.095 7.698 4.899-5.132 10.962-7.698 18.193-7.698 6.376 0 11.351 1.79 14.927 5.365 4.433 4.432 6.65 10.188 6.65 17.262v38.836zm60.41-25.659h-38.02c0 4.045 1.183 7.31 3.557 9.797 2.37 2.49 5.616 3.732 9.737 3.732 5.365 0 9.952-1.904 13.764-5.714l9.21 8.98c-3.342 3.345-6.608 5.714-9.794 7.114-3.656 1.634-8.09 2.45-13.294 2.45-18.739 0-28.11-10.38-28.11-31.14 0-9.718 2.45-17.378 7.349-22.976 4.743-5.365 11.119-8.047 19.128-8.047 8.238 0 14.77 2.76 19.593 8.28 4.587 5.288 6.88 12.208 6.88 20.761v6.764zm-14.927-10.378c-.08-2.488-.545-4.667-1.4-6.533-1.866-4.197-5.25-6.298-10.146-6.298-4.9 0-8.284 2.101-10.15 6.298-.854 1.866-1.32 4.045-1.396 6.533h23.092zm110.445-47.002l-20.761 83.039h-6.414l-19.594-72.31-19.593 72.31h-6.414L278.62 315.17h6.647l17.495 72.193 19.357-72.193h6.532l19.36 72.193 17.496-72.193h6.647zm51.08 83.039h-5.948v-34.872c0-11.197-5.17-16.794-15.511-16.794-4.976 0-8.864 1.478-11.66 4.432-2.802 2.955-4.202 7.076-4.202 12.362v34.872h-5.945V315.17h5.945v33.473c4.201-4.9 9.719-7.349 16.564-7.349 6.372 0 11.428 1.887 15.16 5.657 3.731 3.772 5.597 8.885 5.597 15.337v35.921zm22.742-75.692h-7.345v-7.347h7.345v7.347zm-.699 75.692h-5.948v-56.215h5.948v56.215zm51.897 0h-40.118v-5.598l33.823-45.368h-31.957v-5.249h38.252v5.598l-33.936 45.368h33.936v5.249z"/></svg>